{
    "asset": {
        "generator": "COLLADA2GLTF",
        "version": "2.0"
    },
    "scenes": [
        {
            "nodes": [
                0
            ]
        }
    ],
    "scene": 0,
    "nodes": [
        {
            "children": [
                1
            ],
            "matrix": [
                1.0,
                0.0,
                0.0,
                0.0,
                0.0,
                0.0,
                -1.0,
                0.0,
                0.0,
                1.0,
                0.0,
                0.0,
                0.0,
                0.0,
                0.0,
                1.0
            ],
            "name": "Z_UP"
        },
        {
            "mesh": 0,
            "name": "____"
        }
    ],
    "meshes": [
        {
            "primitives": [
                {
                    "attributes": {
                        "NORMAL": 1,
                        "POSITION": 2
                    },
                    "indices": 0,
                    "mode": 4,
                    "material": 0
                },
                {
                    "attributes": {
                        "NORMAL": 4,
                        "POSITION": 5
                    },
                    "indices": 3,
                    "mode": 4,
                    "material": 1
                },
                {
                    "attributes": {
                        "NORMAL": 7,
                        "POSITION": 8
                    },
                    "indices": 6,
                    "mode": 4,
                    "material": 2
                },
                {
                    "attributes": {
                        "NORMAL": 10,
                        "POSITION": 11
                    },
                    "indices": 9,
                    "mode": 4,
                    "material": 3
                },
                {
                    "attributes": {
                        "NORMAL": 13,
                        "POSITION": 14
                    },
                    "indices": 12,
                    "mode": 4,
                    "material": 4
                },
                {
                    "attributes": {
                        "NORMAL": 16,
                        "POSITION": 17
                    },
                    "indices": 15,
                    "mode": 4,
                    "material": 5
                },
                {
                    "attributes": {
                        "NORMAL": 19,
                        "POSITION": 20
                    },
                    "indices": 18,
                    "mode": 4,
                    "material": 6
                }
            ],
            "name": "____"
        }
    ],
    "accessors": [
        {
            "bufferView": 0,
            "byteOffset": 0,
            "componentType": 5123,
            "count": 864,
            "max": [
                319
            ],
            "min": [
                0
            ],
            "type": "SCALAR"
        },
        {
            "bufferView": 1,
            "byteOffset": 0,
            "componentType": 5126,
            "count": 320,
            "max": [
                0.999399960041046,
                1.0,
                0.999399960041046
            ],
            "min": [
                -0.999399960041046,
                -1.0,
                -0.999399960041046
            ],
            "type": "VEC3"
        },
        {
            "bufferView": 1,
            "byteOffset": 3840,
            "componentType": 5126,
            "count": 320,
            "max": [
                0.46350935101509097,
                0.18188177049160005,
                1.0399928092956544
            ],
            "min": [
                -0.46350935101509097,
                -0.18188177049160005,
                0.1129741072654724
            ],
            "type": "VEC3"
        },
        {
            "bufferView": 0,
            "byteOffset": 1728,
            "componentType": 5123,
            "count": 840,
            "max": [
                445
            ],
            "min": [
                0
            ],
            "type": "SCALAR"
        },
        {
            "bufferView": 1,
            "byteOffset": 7680,
            "componentType": 5126,
            "count": 446,
            "max": [
                0.998653531074524,
                1.0,
                0.998653531074524
            ],
            "min": [
                -0.998653531074524,
                -1.0,
                -0.998653531074524
            ],
            "type": "VEC3"
        },
        {
            "bufferView": 1,
            "byteOffset": 13032,
            "componentType": 5126,
            "count": 446,
            "max": [
                0.22204169631004337,
                0.17108169198036198,
                0.7985252141952515
            ],
            "min": [
                -0.22204169631004337,
                -0.16939513385295869,
                0.35444176197052
            ],
            "type": "VEC3"
        },
        {
            "bufferView": 0,
            "byteOffset": 3408,
            "componentType": 5123,
            "count": 132,
            "max": [
                95
            ],
            "min": [
                0
            ],
            "type": "SCALAR"
        },
        {
            "bufferView": 1,
            "byteOffset": 18384,
            "componentType": 5126,
            "count": 96,
            "max": [
                1.0,
                1.0,
                1.0
            ],
            "min": [
                -1.0,
                -1.0,
                -1.0
            ],
            "type": "VEC3"
        },
        {
            "bufferView": 1,
            "byteOffset": 19536,
            "componentType": 5126,
            "count": 96,
            "max": [
                1.8614137172698977,
                0.6363588571548462,
                0.025996899232268338
            ],
            "min": [
                -1.8614137172698977,
                -0.6363588571548462,
                -0.025996899232268338
            ],
            "type": "VEC3"
        },
        {
            "bufferView": 0,
            "byteOffset": 3672,
            "componentType": 5123,
            "count": 2898,
            "max": [
                2212
            ],
            "min": [
                0
            ],
            "type": "SCALAR"
        },
        {
            "bufferView": 1,
            "byteOffset": 20688,
            "componentType": 5126,
            "count": 2213,
            "max": [
                0.900967001914978,
                0.998081922531128,
                0.9749317169189452
            ],
            "min": [
                -1.0,
                -0.9983248114585877,
                -0.97643381357193
            ],
            "type": "VEC3"
        },
        {
            "bufferView": 1,
            "byteOffset": 47244,
            "componentType": 5126,
            "count": 2213,
            "max": [
                0.2821482717990875,
                0.18917158246040345,
                0.8085302114486694
            ],
            "min": [
                -0.2643657326698303,
                -0.1895652711391449,
                0.23990043997764588
            ],
            "type": "VEC3"
        },
        {
            "bufferView": 0,
            "byteOffset": 9468,
            "componentType": 5123,
            "count": 83328,
            "max": [
                64958
            ],
            "min": [
                0
            ],
            "type": "SCALAR"
        },
        {
            "bufferView": 1,
            "byteOffset": 73800,
            "componentType": 5126,
            "count": 64959,
            "max": [
                1.0,
                1.0,
                0.9999982118606569
            ],
            "min": [
                -1.0,
                -1.0,
                -0.9995619058609008
            ],
            "type": "VEC3"
        },
        {
            "bufferView": 1,
            "byteOffset": 853308,
            "componentType": 5126,
            "count": 64959,
            "max": [
                0.6760844588279724,
                0.1288948357105255,
                0.12047727406024932
            ],
            "min": [
                -0.6868566274642944,
                -0.13058140873908997,
                0.027017978951334958
            ],
            "type": "VEC3"
        },
        {
            "bufferView": 0,
            "byteOffset": 176124,
            "componentType": 5123,
            "count": 1284,
            "max": [
                796
            ],
            "min": [
                0
            ],
            "type": "SCALAR"
        },
        {
            "bufferView": 1,
            "byteOffset": 1632816,
            "componentType": 5126,
            "count": 797,
            "max": [
                0.9986532926559448,
                1.0,
                0.9986526966094972
            ],
            "min": [
                -0.998653531074524,
                -1.0,
                -0.998653531074524
            ],
            "type": "VEC3"
        },
        {
            "bufferView": 1,
            "byteOffset": 1642380,
            "componentType": 5126,
            "count": 797,
            "max": [
                0.3594785630702973,
                0.16939513385295869,
                0.9359646439552308
            ],
            "min": [
                -0.3594785630702973,
                -0.16939513385295869,
                0.2170048952102661
            ],
            "type": "VEC3"
        },
        {
            "bufferView": 0,
            "byteOffset": 178692,
            "componentType": 5123,
            "count": 432,
            "max": [
                259
            ],
            "min": [
                0
            ],
            "type": "SCALAR"
        },
        {
            "bufferView": 1,
            "byteOffset": 1651944,
            "componentType": 5126,
            "count": 260,
            "max": [
                0.86602783203125,
                1.0,
                1.0
            ],
            "min": [
                -0.8660281896591187,
                -1.0,
                -1.0
            ],
            "type": "VEC3"
        },
        {
            "bufferView": 1,
            "byteOffset": 1655064,
            "componentType": 5126,
            "count": 260,
            "max": [
                0.6457213163375855,
                0.05978397652506828,
                1.1205260753631592
            ],
            "min": [
                -0.659477949142456,
                -0.05978397652506828,
                -1.2167387008666993
            ],
            "type": "VEC3"
        }
    ],
    "materials": [
        {
            "pbrMetallicRoughness": {
                "baseColorFactor": [
                    0.023499999195337297,
                    0.1647000014781952,
                    0.015699999406933786,
                    1.0
                ],
                "metallicFactor": 0.0
            },
            "emissiveFactor": [
                0.0,
                0.0,
                0.0
            ],
            "name": "_1___Default"
        },
        {
            "pbrMetallicRoughness": {
                "baseColorFactor": [
                    0.5,
                    0.5,
                    0.5,
                    0.20000000298023225
                ],
                "metallicFactor": 0.0
            },
            "emissiveFactor": [
                0.4000000059604645,
                0.4000000059604645,
                0.4000000059604645
            ],
            "alphaMode": "BLEND",
            "name": "_3___Default"
        },
        {
            "pbrMetallicRoughness": {
                "baseColorFactor": [
                    0.24309998750686649,
                    0.24309998750686649,
                    0.24309998750686649,
                    1.0
                ],
                "metallicFactor": 0.0
            },
            "emissiveFactor": [
                0.0,
                0.0,
                0.0
            ],
            "name": "_2___Default"
        },
        {
            "pbrMetallicRoughness": {
                "baseColorFactor": [
                    0.7450999617576599,
                    0.7450999617576599,
                    0.7450999617576599,
                    1.0
                ],
                "metallicFactor": 0.0
            },
            "emissiveFactor": [
                0.0,
                0.0,
                0.0
            ],
            "name": "_3___Default_1"
        },
        {
            "pbrMetallicRoughness": {
                "baseColorFactor": [
                    0.5881999731063843,
                    0.5881999731063843,
                    0.5881999731063843,
                    1.0
                ],
                "metallicFactor": 0.0
            },
            "emissiveFactor": [
                0.0,
                0.0,
                0.0
            ],
            "name": "_7___Default"
        },
        {
            "pbrMetallicRoughness": {
                "baseColorFactor": [
                    0.6980000138282776,
                    0.5881999731063843,
                    0.7058999538421631,
                    1.0
                ],
                "metallicFactor": 0.0
            },
            "emissiveFactor": [
                0.0,
                0.0,
                0.0
            ],
            "name": "_9___Default"
        },
        {
            "pbrMetallicRoughness": {
                "baseColorFactor": [
                    0.5881999731063843,
                    0.7450999617576599,
                    0.6510000228881836,
                    1.0
                ],
                "metallicFactor": 0.0
            },
            "emissiveFactor": [
                0.0,
                0.0,
                0.0
            ],
            "name": "_8___Default"
        }
    ],
    "bufferViews": [
        {
            "buffer": 0,
            "byteOffset": 1658184,
            "byteLength": 179556,
            "target": 34963
        },
        {
            "buffer": 0,
            "byteOffset": 0,
            "byteLength": 1658184,
            "byteStride": 12,
            "target": 34962
        }
    ],
    "buffers": [
        {
            "byteLength": 1837740,
            "uri": "data:application/octet-stream;base64,"
        }
    ]
}
